<svg aria-hidden="true" style="width:0;height:0;position:absolute;overflow:hidden" xmlns="http://www.w3.org/2000/svg"><defs><symbol id="icon-heart-icon" viewBox="0 0 32 32"><path fill="#ffa5ba" style="fill:var(--color1,#ffa5ba)" d="M8.916 1.466c-.156.008-.294.031-.305.046s-.179.061-.37.099c-.195.034-.355.08-.355.095s-.065.042-.141.057c-.183.034-.484.133-.507.172a.83.83 0 0 1-.217.092c-.107.038-.202.076-.21.092-.015.034-.351.198-.408.198-.023 0-.042.019-.042.038 0 .023-.061.069-.133.103s-.133.076-.133.092c0 .015-.069.061-.153.107-.08.042-.183.107-.221.145s-.133.118-.206.175c-.29.225-1.072 1.03-1.205 1.247-.034.053-.084.111-.111.126s-.05.053-.05.084a.103.103 0 0 1-.053.084.49.49 0 0 0-.114.153c-.034.069-.076.126-.092.126-.019 0-.061.084-.099.191-.038.103-.084.191-.107.191-.019 0-.053.05-.072.114-.023.061-.053.114-.072.114-.015 0-.05.08-.076.175s-.069.195-.095.217a1.246 1.246 0 0 0-.111.263c-.038.122-.08.221-.099.221-.015 0-.05.107-.076.237-.027.133-.065.252-.084.263-.015.011-.061.164-.095.343-.034.175-.076.328-.092.34-.065.046-.126.961-.126 1.888 0 .919.065 1.881.126 1.926.011.011.053.198.092.42.034.217.08.404.099.42.019.011.057.126.08.256.027.133.061.24.072.24.015 0 .05.103.076.233a.982.982 0 0 0 .103.282c.031.027.053.069.053.088 0 .08.134.45.179.496.027.027.05.084.05.122s.023.095.053.126a.567.567 0 0 1 .095.21.664.664 0 0 0 .092.206c.031.027.084.13.122.233.038.099.08.179.095.179s.05.069.076.153.065.153.084.153c.019 0 .061.065.095.141.031.08.08.16.111.175s.053.057.053.084c0 .031.031.088.069.126a.887.887 0 0 1 .137.229c.038.088.088.16.107.16s.05.042.069.095.05.095.065.095c.019 0 .065.061.103.134.042.072.088.134.107.134s.05.042.069.095.065.107.095.118c.031.015.057.046.057.076 0 .027.042.08.095.114s.095.08.095.103c0 .023.034.076.072.122.042.042.153.16.248.259.095.103.175.195.175.206 0 .015.21.229.465.477.259.248.607.587.778.752s.359.332.42.37c.057.042.168.137.244.214.072.08.153.145.179.145.023 0 .076.042.114.088.038.05.107.111.153.134.046.027.107.069.133.092.088.084.294.221.324.221.019 0 .053.034.08.076s.072.076.103.076.069.023.084.046c.034.057.141.126.271.183.046.019.084.05.084.069s.069.065.153.103c.084.038.153.08.153.092 0 .015.088.065.191.114.107.05.191.103.191.118s.076.057.172.099c.095.038.172.08.172.092s.092.061.202.114c.107.05.206.103.217.114s.092.053.179.095c.092.042.164.088.164.103 0 .011.088.053.191.088.107.034.191.076.191.092s.111.069.248.118.248.103.248.114.076.046.175.072a.751.751 0 0 1 .217.095c.057.053.435.214.507.214.031 0 .053.015.053.031s.084.061.191.099.191.084.191.099.034.038.076.05c.076.019.076.053.076 3.971v3.952h1.945v-7.267h.763v7.267h1.945v-3.967c0-3.941 0-3.967.076-3.967.042 0 .076-.015.076-.031s.084-.061.191-.099c.103-.038.191-.08.191-.095 0-.011.103-.057.233-.095.126-.038.252-.092.275-.118a1.13 1.13 0 0 1 .267-.114c.118-.038.217-.08.217-.095s.107-.069.24-.118c.13-.046.244-.099.256-.114s.095-.057.191-.095.191-.088.21-.111a.575.575 0 0 1 .172-.099c.072-.027.164-.08.202-.114s.134-.084.217-.111c.084-.027.153-.065.153-.08 0-.019.065-.061.141-.092a.607.607 0 0 0 .164-.092.728.728 0 0 1 .202-.114c.099-.046.179-.095.179-.111 0-.019.061-.061.134-.095s.134-.076.134-.095.061-.057.137-.084a.61.61 0 0 0 .183-.114c.023-.034.103-.092.179-.126s.149-.092.164-.122c.011-.031.042-.057.069-.057s.118-.061.202-.134c.084-.072.164-.134.175-.134a.804.804 0 0 0 .172-.134c.084-.072.16-.134.175-.134s.103-.076.198-.172c.099-.095.191-.172.206-.172.019 0 .221-.183.454-.412.233-.225.587-.568.79-.759.202-.195.366-.366.366-.385 0-.015.046-.072.107-.126.057-.053.172-.179.256-.282.084-.099.187-.217.229-.263s.107-.13.145-.191a2.54 2.54 0 0 1 .267-.336c.034-.038.065-.084.065-.103 0-.023.031-.061.069-.088.034-.027.099-.118.141-.202s.088-.156.103-.164c.015-.008.057-.072.092-.145s.076-.13.095-.13.034-.023.034-.05c0-.027.031-.084.069-.126.034-.038.099-.141.141-.225s.088-.16.103-.172c.011-.011.053-.095.092-.191s.092-.195.118-.221c.027-.027.05-.072.05-.099s.034-.088.072-.133a.87.87 0 0 0 .122-.252c.027-.095.061-.172.076-.172.011 0 .053-.095.092-.21.034-.114.076-.21.092-.21s.053-.095.08-.21c.027-.114.061-.21.076-.21s.057-.133.099-.298c.038-.16.08-.301.095-.313.031-.027.149-.557.149-.671 0-.05.015-.092.034-.092s.053-.168.08-.374c.027-.202.061-.378.08-.389.015-.011.05-.385.076-.828.034-.626.034-.965 0-1.507-.027-.381-.057-.706-.076-.717-.015-.011-.053-.179-.08-.374-.027-.191-.061-.351-.072-.351-.015 0-.057-.164-.099-.362-.038-.198-.08-.362-.095-.362-.011 0-.053-.111-.095-.248-.038-.137-.08-.248-.095-.248s-.05-.076-.076-.172-.061-.172-.076-.172c-.019 0-.061-.088-.099-.191-.038-.107-.08-.191-.095-.191-.011 0-.053-.076-.088-.172-.038-.095-.08-.172-.099-.172-.015 0-.05-.053-.08-.118-.027-.069-.088-.164-.137-.217s-.088-.114-.088-.137c0-.023-.034-.065-.076-.092s-.076-.072-.076-.103-.034-.072-.076-.095-.076-.065-.076-.092c0-.031-.042-.08-.095-.114s-.095-.08-.095-.103c0-.023-.107-.141-.236-.267-.134-.126-.309-.298-.397-.378A.863.863 0 0 0 26.532 3a.384.384 0 0 1-.114-.088 1.61 1.61 0 0 0-.397-.286c-.069-.034-.126-.072-.126-.088 0-.019-.065-.061-.141-.099a.63.63 0 0 1-.183-.111.845.845 0 0 0-.217-.111c-.103-.038-.183-.08-.183-.092 0-.015-.084-.057-.191-.095-.103-.038-.191-.084-.191-.103s-.019-.034-.046-.034c-.069 0-.58-.164-.603-.191-.027-.034-.591-.153-.725-.153-.065 0-.114-.019-.114-.038 0-.023-.446-.038-1.259-.038s-1.259.015-1.259.038c0 .019-.065.038-.141.038-.183 0-.824.114-.851.153-.011.015-.187.065-.389.114-.206.046-.374.095-.374.114 0 .015-.118.061-.267.099-.145.038-.267.08-.267.095s-.114.065-.256.114c-.145.046-.267.095-.278.114-.011.015-.095.057-.191.095s-.179.08-.191.095a1.216 1.216 0 0 1-.21.111 1.372 1.372 0 0 0-.21.111.702.702 0 0 1-.16.092c-.08.038-.145.08-.145.099 0 .015-.061.057-.134.092s-.134.08-.134.099-.05.053-.107.076a1.37 1.37 0 0 0-.259.179c-.118.107-.172.13-.263.111a.336.336 0 0 1-.172-.088.866.866 0 0 0-.294-.198c-.05-.019-.088-.053-.088-.072 0-.023-.065-.069-.141-.107-.08-.034-.172-.095-.21-.134s-.095-.069-.126-.069a.114.114 0 0 1-.084-.05c-.027-.046-.359-.217-.412-.217a.382.382 0 0 1-.103-.076.48.48 0 0 0-.187-.095c-.061-.015-.111-.038-.111-.057 0-.015-.118-.069-.267-.118-.145-.046-.267-.099-.267-.114s-.114-.057-.256-.095c-.145-.038-.267-.08-.282-.099-.011-.015-.191-.069-.401-.114a2.787 2.787 0 0 1-.397-.107c-.023-.031-.881-.153-1.057-.153-.065 0-.126-.019-.133-.038-.011-.042-1.553-.08-2.052-.05zm1.751 1.846c.244.023.45.057.462.072s.107.038.21.053c.328.046.629.114.629.141 0 .015.065.038.145.05.214.042.557.149.603.195a.75.75 0 0 0 .202.095c.084.027.156.061.156.076s.069.05.153.076.183.08.225.118c.042.038.114.08.168.092a.46.46 0 0 1 .172.099c.046.038.149.107.233.153.088.046.156.092.156.107 0 .011.057.046.126.076a.564.564 0 0 1 .16.095c.046.05.275.214.301.214.011 0 .103.084.206.187s.221.198.267.21c.046.015.084.042.084.061s.057.065.126.099a.554.554 0 0 1 .149.107c.034.053.671.057.71.004a.618.618 0 0 1 .191-.111c.088-.042.16-.088.16-.103 0-.019.05-.057.107-.088s.175-.122.259-.202c.179-.168.378-.317.431-.317.019 0 .042-.027.057-.057.011-.031.065-.076.118-.095s.095-.053.095-.076c0-.019.08-.072.183-.118a.78.78 0 0 0 .198-.114c.011-.015.088-.061.172-.095s.168-.084.191-.111c.019-.027.13-.08.24-.118.107-.038.198-.08.198-.092 0-.015.103-.057.229-.095s.229-.08.229-.095.156-.069.343-.118c.187-.046.343-.099.343-.114 0-.011.16-.057.355-.092.191-.038.359-.08.37-.095.042-.053.74-.114 1.289-.114s1.148.053 1.19.107c.011.015.137.057.286.095.145.038.275.08.286.099.011.015.114.057.229.095s.229.088.248.111c.023.027.107.08.191.122s.16.084.172.095c.034.034.168.114.259.153.046.019.084.053.084.076s.031.05.069.065c.034.015.13.088.21.16.336.317.66.649.732.744.042.057.107.137.145.179.034.038.065.084.065.099 0 .019.042.08.095.141.05.057.114.156.141.217s.061.111.072.111c.011 0 .053.076.088.172.038.095.08.172.099.172.015 0 .061.103.099.229s.08.229.095.229.05.092.072.198c.027.111.061.21.076.221.034.023.153.58.153.725 0 .061.015.114.034.122.088.031.156 1.415.076 1.568-.053.099-.187.214-.252.217-.023 0-.069.023-.095.05-.027.031-.153.084-.278.122s-.24.088-.252.103c-.011.019-.149.069-.305.111-.156.046-.29.095-.301.111s-.134.057-.275.095c-.145.038-.259.084-.259.099 0 .019-.031.034-.065.034-.103 0-.599.122-.622.156-.011.015-.275.065-.591.114-.313.046-.58.099-.591.111-.019.027-1.122.153-1.324.153-.069 0-.126.015-.126.034 0 .015-.145.042-.324.057-.549.046-1.049.133-1.11.195-.034.031-.08.057-.107.057-.069 0-.252.092-.252.126 0 .015-.038.046-.084.065-.134.057-.221.122-.362.267-.217.229-.24.252-.24.29 0 .023-.031.072-.069.114-.076.08-.198.488-.198.66 0 .061-.019.118-.046.126-.031.011-.05.496-.069 1.82-.015.992-.042 1.816-.061 1.827a.474.474 0 0 0-.076.099c-.092.172-.481.134-.576-.053-.027-.053-.05-.221-.05-.374 0-.149-.015-.275-.034-.275s-.042-.824-.053-1.938c-.015-1.842-.046-2.384-.141-2.449a.468.468 0 0 1-.072-.164c-.027-.076-.065-.141-.084-.141s-.034-.023-.034-.053c0-.099-.393-.469-.591-.557a1.372 1.372 0 0 1-.21-.111.783.783 0 0 0-.172-.095.965.965 0 0 1-.172-.099c-.011-.011-.095-.053-.191-.092s-.179-.08-.191-.095c-.011-.015-.122-.069-.248-.118s-.236-.103-.248-.114a.845.845 0 0 0-.198-.095c-.103-.038-.183-.08-.183-.092 0-.015-.111-.069-.248-.118s-.248-.103-.248-.118c0-.011-.076-.053-.172-.095-.095-.038-.172-.08-.172-.092 0-.015-.095-.065-.21-.111-.114-.05-.21-.099-.21-.114s-.076-.057-.172-.095c-.095-.042-.172-.088-.172-.103 0-.019-.076-.069-.172-.111s-.172-.092-.172-.111-.031-.042-.065-.057a.584.584 0 0 1-.271-.187c-.027-.034-.072-.065-.103-.065s-.076-.031-.103-.069a.609.609 0 0 0-.267-.183c-.038-.015-.069-.038-.069-.057s-.038-.053-.084-.072c-.13-.057-.236-.126-.271-.183-.015-.023-.053-.046-.084-.046s-.076-.031-.103-.069a.884.884 0 0 0-.229-.156c-.103-.05-.183-.103-.183-.118s-.069-.057-.153-.099c-.084-.038-.153-.084-.153-.099s-.076-.065-.172-.107c-.095-.042-.172-.092-.172-.107 0-.019-.072-.065-.16-.103a.858.858 0 0 1-.202-.114c-.019-.027-.099-.069-.172-.095s-.149-.069-.172-.095a.795.795 0 0 0-.217-.114c-.103-.038-.183-.08-.183-.092 0-.015-.084-.057-.191-.095-.103-.038-.191-.08-.191-.095 0-.011-.137-.065-.305-.114-.168-.053-.305-.107-.305-.122s-.13-.057-.286-.095-.286-.08-.286-.095-.21-.065-.465-.114c-.259-.05-.477-.099-.488-.114a4.157 4.157 0 0 0-.542-.095c-.29-.038-.526-.08-.526-.095s-.137-.038-.305-.053c-.298-.027-.408-.072-.29-.118.034-.011.061-.046.061-.069 0-.027.038-.084.088-.126.046-.046.187-.195.309-.332.126-.137.244-.252.267-.252s.099-.061.172-.133.149-.133.175-.133.057-.027.072-.057c.011-.031.088-.088.175-.122.084-.038.153-.08.153-.099 0-.015.061-.057.133-.088s.133-.069.133-.088c0-.019.122-.072.267-.118.149-.046.267-.099.267-.114s.141-.057.317-.095c.172-.038.32-.084.332-.103.065-.092 1.221-.13 1.904-.065zM5.971 7.279c.298.027.542.061.542.076 0 .019.038.034.088.034.13-.004.881.126.904.156.011.011.175.065.362.111.191.05.351.103.362.114.011.015.126.057.259.095.13.038.236.084.236.099 0 .011.103.065.229.111s.229.099.229.114.072.05.156.076a.782.782 0 0 1 .202.095c.05.05.385.21.439.21.019 0 .042.027.057.057.011.031.042.057.072.057.027 0 .084.034.13.072.042.042.149.111.236.153.084.046.156.095.156.114s.031.046.069.057c.126.05.236.118.236.149 0 .015.038.046.088.065a.75.75 0 0 1 .286.198c.027.038.072.069.103.069s.069.023.084.046c.034.053.141.126.263.179a.21.21 0 0 1 .103.095c.015.034.046.061.072.061s.111.053.183.114.153.114.179.114.069.031.095.069.114.099.195.133c.076.038.141.08.141.095s.069.061.153.099c.084.042.153.084.153.099s.088.065.191.111c.107.046.191.095.191.114 0 .015.076.061.172.103.095.038.172.08.172.092 0 .015.095.065.21.111.114.05.21.099.21.114s.088.057.191.095c.107.038.191.08.191.095s.095.057.214.099c.118.042.236.092.259.114.023.019.137.069.252.111.114.038.217.084.229.095.011.015.13.069.267.118s.256.103.267.114c.011.015.072.05.134.08.103.05.118.076.137.282.015.126.027.961.031 1.858.004 1.06.019 1.633.042 1.633s.038.141.038.343c0 .378.069.916.118.916.015 0 .057.092.088.206.034.114.088.214.118.229.031.011.057.046.057.076 0 .05.347.416.561.595.095.08.332.191.408.191.034 0 .061.015.061.034 0 .057.347.122.763.145.393.023 1.015-.061 1.068-.137a.509.509 0 0 1 .164-.084c.084-.027.164-.084.183-.118.019-.038.061-.069.088-.069.053 0 .519-.45.519-.504 0-.019.046-.08.107-.137.111-.111.236-.481.236-.71 0-.072.019-.137.042-.145.034-.011.05-.458.061-1.614.015-1.797.042-2.083.187-2.152a.535.535 0 0 1 .168-.042c.042 0 .076-.015.076-.034 0-.015.175-.042.393-.057.626-.042 1.53-.141 1.553-.172.011-.015.244-.057.515-.095.275-.038.504-.084.515-.099s.225-.065.477-.114.465-.099.477-.114c.011-.011.156-.053.324-.092s.313-.084.324-.095c.011-.015.168-.069.355-.118.183-.046.332-.099.332-.118 0-.034.225-.088.252-.061s-.069.332-.103.332c-.015 0-.05.095-.076.214s-.069.233-.092.259a1.202 1.202 0 0 0-.114.259c-.038.122-.084.221-.099.221-.011 0-.053.095-.092.21-.034.114-.076.21-.092.21s-.053.069-.08.153c-.027.084-.065.153-.08.153s-.057.084-.095.191c-.038.103-.08.191-.092.191-.015 0-.057.069-.095.153s-.084.153-.103.153c-.015 0-.031.023-.031.05s-.031.084-.065.126a1.191 1.191 0 0 0-.145.214.464.464 0 0 1-.099.145c-.015 0-.053.061-.088.133s-.08.133-.095.133-.05.046-.076.103-.08.126-.122.156c-.038.027-.072.069-.072.092s-.038.08-.084.13c-.05.05-.13.141-.183.206-.263.32-1.022 1.102-1.244 1.278a4.903 4.903 0 0 0-.263.229 6.125 6.125 0 0 1-.267.229 1.75 1.75 0 0 0-.244.217c-.053.061-.118.107-.145.107-.023 0-.061.023-.076.053s-.095.092-.172.137c-.08.046-.145.095-.145.111a.48.48 0 0 1-.141.099.773.773 0 0 0-.195.141c-.027.038-.072.069-.095.069-.027 0-.092.042-.153.092a.982.982 0 0 1-.217.137c-.065.027-.114.061-.114.08s-.076.069-.172.111c-.095.042-.172.092-.172.111s-.076.065-.172.107c-.095.038-.172.08-.172.095 0 .011-.08.061-.179.111a1.205 1.205 0 0 0-.202.107.973.973 0 0 1-.179.099c-.092.042-.164.088-.164.103 0 .011-.084.053-.191.088-.103.034-.202.084-.217.111a.625.625 0 0 1-.221.118 1.729 1.729 0 0 0-.21.095c-.011.015-.13.065-.267.114s-.256.103-.267.118a.951.951 0 0 1-.21.095.95.95 0 0 0-.21.088 1.35 1.35 0 0 1-.294.114c-.153.05-.278.103-.278.122s-.023.034-.053.034c-.069 0-.458.122-.481.153-.011.015-.172.065-.362.111-.187.046-.355.107-.37.13-.034.057-.446.057-.481.004-.015-.023-.187-.08-.378-.134-.195-.05-.355-.103-.355-.114 0-.015-.114-.057-.256-.095-.145-.038-.267-.08-.278-.095s-.145-.065-.294-.111c-.153-.046-.278-.095-.278-.111s-.103-.057-.229-.095-.229-.084-.229-.099-.118-.069-.267-.114c-.145-.046-.267-.099-.267-.114s-.08-.057-.179-.095a1.022 1.022 0 0 1-.202-.092 1.194 1.194 0 0 0-.217-.118c-.111-.053-.202-.107-.202-.122 0-.011-.05-.034-.111-.05a.449.449 0 0 1-.179-.088 1.642 1.642 0 0 0-.271-.156c-.111-.053-.202-.107-.202-.122s-.05-.042-.107-.065a.43.43 0 0 1-.164-.095c-.031-.031-.13-.092-.217-.137s-.16-.095-.16-.111c0-.015-.069-.057-.153-.095-.084-.034-.153-.08-.153-.103 0-.019-.076-.069-.168-.111s-.175-.103-.191-.137c-.011-.031-.046-.057-.076-.057-.034 0-.088-.042-.122-.095s-.084-.095-.107-.095c-.05 0-.244-.153-.408-.317-.057-.057-.118-.103-.137-.103-.023 0-.133-.095-.252-.21s-.225-.21-.24-.21a.747.747 0 0 1-.164-.134c-.675-.648-.805-.778-.805-.809 0-.015-.084-.107-.191-.198-.103-.092-.191-.187-.191-.214 0-.023-.053-.08-.114-.126-.065-.05-.114-.099-.114-.118 0-.015-.076-.114-.172-.217-.095-.099-.172-.202-.172-.229 0-.023-.027-.053-.057-.069-.031-.011-.076-.065-.095-.118s-.053-.095-.072-.095-.053-.053-.08-.114c-.027-.065-.061-.114-.08-.114-.015 0-.061-.061-.095-.133s-.072-.133-.088-.133c-.015 0-.057-.076-.095-.172-.042-.095-.088-.172-.107-.172s-.053-.053-.072-.114c-.023-.065-.053-.114-.069-.114s-.057-.088-.095-.191c-.038-.107-.084-.191-.099-.191s-.061-.088-.099-.191c-.038-.107-.08-.191-.099-.191-.015 0-.046-.069-.069-.153s-.057-.153-.076-.153c-.023 0-.038-.019-.038-.046 0-.084-.13-.488-.16-.488-.011 0-.053-.133-.092-.298a1.652 1.652 0 0 0-.088-.313c-.034-.023-.118-.397-.118-.515 0-.05-.015-.095-.034-.103-.034-.011-.156-.782-.156-.999 0-.076-.015-.137-.038-.137s-.038-.259-.038-.706.015-.706.038-.706.038-.103.038-.229c0-.301.111-1.083.156-1.099.019-.008.034-.046.034-.084 0-.122.031-.122 1.137-.034z"/></symbol><symbol id="icon-bucket-icon" viewBox="0 0 32 32"><path fill="#ffa5ba" style="fill:var(--color1,#ffa5ba)" d="M29.528 21.41c-1.292-.458-2.382-.344-3.242.018.145-.877.47-1.832 1.17-2.481a1.065 1.065 0 0 0-1.449-1.561c-1.229 1.14-1.706 2.748-1.874 4.081a4.036 4.036 0 0 0-1.058-.311l1.89-9.83a1.065 1.065 0 0 0-1.046-1.266h-.204c.094-.5.141-.997.137-1.47-.016-1.994-.903-3.495-2.374-4.017-1.41-.5-2.59-.35-3.507.066.145-.976.494-2.063 1.282-2.794A1.065 1.065 0 0 0 17.804.284c-1.32 1.225-1.815 2.965-1.982 4.386-.735-.348-1.644-.527-2.708-.33-1.094-1.571-2.613-2.296-4.089-1.942-1.451.349-2.358 1.115-2.901 1.962-.41-.899-.712-2.001-.452-3.036A1.065 1.065 0 0 0 3.607.805c-.439 1.746.095 3.476.729 4.758-1.016.137-2.117.65-3.049 1.866-.578.755-.773 1.698-.596 2.7a1.065 1.065 0 0 0-.674 1.197l3.809 19.81c.096.501.535.864 1.046.864h15.237c.511 0 .949-.362 1.046-.864l.037-.195c.287.198.596.363.927.487 1.266.471 2.447.278 3.044.118.316.085.795.179 1.364.179.506 0 1.084-.075 1.68-.297 2.36-.879 3.615-3.839 3.596-6.178-.015-1.904-.866-3.339-2.276-3.839zm-6.951-9.22c-.49 4.705-4.452 7.909-9.971 7.909s-9.481-3.204-9.971-7.91h19.942zm-6.643-4.675a1.047 1.047 0 0 0 1.86 0c.029-.048.29-.466.769-.777.629-.408 1.35-.46 2.203-.157.851.302.952 1.518.956 2.027.004.464-.064.962-.191 1.453h-7.126c.236-1.189.094-2.492-.289-3.669a2.12 2.12 0 0 1 1.047.346c.479.311.74.729.769.777zM2.98 8.724c.55-.719 1.182-1.068 1.932-1.069h.002c.57 0 1.016.208 1.066.232a1.05 1.05 0 0 0 1.079-.037c.331-.211.51-.591.481-.983-.006-.077-.115-1.893 1.983-2.397.876-.211 1.625.754 1.906 1.178.807 1.22 1.221 3.108.777 4.413H2.857c-.141-.443-.179-.943.122-1.336zM5.754 29.87 3.643 18.892c.138.133.281.263.427.389 2.208 1.901 5.239 2.948 8.535 2.948s6.328-1.047 8.535-2.948c.052-.044.102-.09.152-.135l-.431 2.243c-.02.007-.041.013-.061.021-1.41.5-2.261 1.935-2.276 3.839-.009 1.164.297 2.483.898 3.622l-.192.999H5.753zm21.711-.438c-.943.351-1.881.017-1.916.005a1.04 1.04 0 0 0-.768 0c-.009.004-.96.352-1.917-.004-1.338-.498-2.223-2.556-2.21-4.165.004-.466.095-1.578.858-1.849.349-.124.661-.175.939-.175 1.107 0 1.657.812 1.782 1.024a1.047 1.047 0 0 0 1.862 0c.156-.266.977-1.468 2.721-.849.763.271.854 1.383.858 1.849.013 1.609-.872 3.667-2.21 4.165z"/></symbol><symbol id="icon-cow-icon" viewBox="0 0 21 32"><path fill="#ffa5ba" style="fill:var(--color1,#ffa5ba)" d="M2.333.144c-.35.187-.553.563-.553 1.006.006.813.209 1.556.614 2.2l.178.294-.338.381c-.381.425-.473.581-.645 1.087-.141.412-.153 1.162-.031 1.581.43 1.438 1.854 2.269 3.248 1.9.473-.125.761-.281 1.203-.656l.375-.313.35.175c.196.1.528.244.743.325l.381.138v.7c0 1.106.227 1.762.81 2.356s1.498.9 2.29.762c.565-.1 1.117-.381 1.492-.762.583-.594.81-1.25.81-2.356v-.7l.387-.138c.209-.081.54-.225.737-.325l.35-.175.375.313c.442.375.731.531 1.203.656 1.394.369 2.818-.463 3.248-1.9.123-.419.111-1.169-.031-1.581-.172-.506-.264-.662-.645-1.087l-.338-.381.178-.294c.405-.644.608-1.387.614-2.2 0-.444-.203-.819-.553-1.006L18.521 0H2.595l-.264.144zM17.068 2.1c0 .019-.178.313-.399.663-.651 1.031-.626 1.256.239 2.169.313.331.602.662.645.737.233.463-.233 1.037-.749.919-.123-.025-.393-.244-.786-.631-.786-.775-1.056-.862-1.658-.519-.694.4-1.578.806-2.008.925-.608.175-.817.306-.976.638-.129.256-.141.362-.141 1.362 0 1.231-.049 1.431-.399 1.6-.252.125-.301.125-.553 0-.35-.169-.399-.369-.399-1.6 0-1-.012-1.106-.135-1.362-.166-.325-.375-.462-.982-.638-.528-.15-1.308-.494-1.738-.775-.405-.263-.761-.362-1.044-.313-.184.037-.368.181-.86.662-.405.394-.694.625-.817.65-.51.119-.976-.463-.743-.919.043-.075.332-.406.645-.737.866-.912.89-1.138.239-2.169-.221-.35-.399-.644-.399-.663 0-.025 2.929-.038 6.508-.038s6.508.013 6.508.038zM.485 13.206c-.313.212-.485.512-.485.844 0 .225 3.119 16.925 3.229 17.275.055.194.282.425.522.55.227.125.387.125 6.809.125s6.582 0 6.809-.125c.239-.125.467-.356.522-.55.11-.35 3.229-17.05 3.229-17.275 0-.331-.172-.631-.485-.844l-.209-.144H.694l-.209.144zm18.21 2.275c-.061.5-.418 1.587-.682 2.081-1.283 2.375-3.714 3.819-6.729 3.988-2.278.131-4.206-.331-5.82-1.394a7 7 0 0 1-2.265-2.438c-.307-.544-.712-1.712-.774-2.237l-.043-.356h16.356l-.043.356zM4.39 21.919c2.634 1.775 6.569 2.244 9.885 1.169a10.688 10.688 0 0 0 3.18-1.688c.276-.219.295-.219.264-.081-.018.081-.381 1.994-.804 4.244s-.78 4.156-.798 4.231l-.031.144H5.035l-.031-.144c-.018-.075-.375-1.981-.798-4.231s-.786-4.163-.804-4.244c-.031-.137-.012-.137.264.081.16.125.491.356.724.519z"/></symbol></defs></svg>